<svg viewBox="0 0 209 251" xmlns="http://www.w3.org/2000/svg"><g stroke="#2E9FE6" stroke-width="5" fill="none" fill-rule="evenodd" stroke-linecap="round" stroke-linejoin="round"><path d="M31.953 175.457c-38.86-39.69-38.602-103.363.776-142.734 39.638-39.63 103.904-39.63 143.542 0 39.378 39.371 39.637 103.044.776 142.734L104.5 248l-72.551-72.539.004-.004z"/><path d="M79.298 172.566A73.359 73.359 0 0 0 104.5 177c40.593 0 73.5-32.907 73.5-73.5 0-7.045-.991-13.86-2.842-20.31m-48.485-49.786A73.465 73.465 0 0 0 104.5 30C63.907 30 31 62.907 31 103.5c0 6.214.771 12.248 2.223 18.012"/><ellipse cx="134.846" cy="38.188" rx="9.154" ry="9.188"/><ellipse cx="69.154" cy="166.813" rx="9.154" ry="9.188"/><ellipse transform="rotate(40 168.5 74.347)" cx="168.501" cy="74.347" rx="9.154" ry="9.188"/><ellipse transform="rotate(40 35.5 130.653)" cx="35.499" cy="130.653" rx="9.154" ry="9.188"/><path d="M108.845 56L73 113.884h26.425l-3.562 17.5M100.155 154L136 96.116h-26.425l3.562-17.5"/></g></svg>
