<svg viewBox="0 0 256 278" xmlns="http://www.w3.org/2000/svg"><g stroke="#2E9FE6" stroke-width="5" fill="none" fill-rule="evenodd" stroke-linecap="round" stroke-linejoin="round"><path d="M235 3H13C7.477 3 3 7.477 3 13v244m18 18h222c5.523 0 10-4.477 10-10V21"/><circle cx="19" cy="20" r="5"/><circle cx="39" cy="20" r="5"/><circle cx="59" cy="20" r="5"/><path d="M251.968 39H31M132 108l-29 47.607h21.38L121.497 170M125 188l29-47.607h-21.38L135.503 126"/><rect x="79" y="86" width="99" height="122" rx="5"/><path d="M66.997 198.201H44.351a5.575 5.575 0 0 1-5.576-5.575v-88.092a5.575 5.575 0 0 1 5.576-5.575h22.646M189.312 98.959h22.646a5.575 5.575 0 0 1 5.576 5.575v88.092a5.575 5.575 0 0 1-5.576 5.575h-22.646"/></g></svg>
