<svg viewBox="0 0 256 278" xmlns="http://www.w3.org/2000/svg"><g stroke="#2E9FE6" stroke-width="5" fill="none" fill-rule="evenodd" stroke-linecap="round" stroke-linejoin="round"><path d="M235 3H13C7.477 3 3 7.477 3 13v244m18 18h222c5.523 0 10-4.477 10-10V21"/><circle cx="19" cy="20" r="5"/><circle cx="39" cy="20" r="5"/><circle cx="59" cy="20" r="5"/><path d="M251.968 39H31"/><rect x="29" y="73" width="97" height="48" rx="5"/><path d="M151.452 78h74.102M151.452 96h74.102M151.452 115h74.102"/><rect x="28" y="149" width="31" height="31" rx="5"/><path d="M79 156.5h45.94M79 171.5h32.5M79 206.5h45.94M79 221.5h32.5"/><rect x="150" y="149" width="75" height="80" rx="5"/><path d="M78.5 248h147"/><rect x="28" y="198" width="31" height="31" rx="5"/></g></svg>
