<svg viewBox="0 0 16 16" version="1.1" xmlns="http://www.w3.org/2000/svg" xmlns:xlink="http://www.w3.org/1999/xlink"><g fill="#f0ad4e"><path d="M4.96820379,4.68883457 C5.88551736,4.24736635 6.91387093,4 8,4 C11.8659932,4 15,7.13400675 15,11 L16,11 C16,6.581722 12.418278,3 8,3 C6.72161669,3 5.51326773,3.29985271 4.44144871,3.83306256 L4.96820379,4.68883457 Z M4.03905142,5.22764605 C2.20356832,6.48955323 1,8.60422239 1,11 L0,11 C0,8.28991895 1.34756697,5.89457903 3.40918673,4.44749441 L4.03905142,5.22764605 Z" fill-rule="nonzero"></path> <path d="M8,12 C8.55228475,12 9,11.5522847 9,11 C9,10.4477153 8.55228475,10 8,10 C7.44771525,10 7,10.4477153 7,11 C7,11.5522847 7.44771525,12 8,12 Z M8,13 C6.8954305,13 6,12.1045695 6,11 C6,9.8954305 6.8954305,9 8,9 C9.1045695,9 10,9.8954305 10,11 C10,12.1045695 9.1045695,13 8,13 Z" fill-rule="nonzero"></path><polygon fill-rule="nonzero" points="7.71696549 9.84295521 3.15081738 4.11587899 2.3689165 4.73928177 6.93506462 10.466358"></polygon><path d="M2.0000764,11.0306037 C2.00002549,11.0204085 2,11.0102072 2,11 C2,9.59705733 2.48150897,8.3065771 3.2882817,7.28480454 L5.43010972,9.45134139 C5.1570958,9.90341744 5,10.4333629 5,11 C5,11.0102132 5.00005104,11.0204146 5.00015287,11.0306037 L2.0000764,11.0306037 Z"></path></g></svg>